<svg width="17" height="17" viewBox="0 0 17 17" fill="none" xmlns="http://www.w3.org/2000/svg">
<path d="M8.5 0.809018L10.1706 5.95061L10.2267 6.12336H10.4084L15.8146 6.12336L11.4409 9.30103L11.2939 9.4078L11.35 9.58054L13.0206 14.7221L8.64695 11.5445L8.5 11.4377L8.35305 11.5445L3.97935 14.7221L5.64996 9.58054L5.70609 9.4078L5.55914 9.30103L1.18544 6.12336L6.59163 6.12336H6.77327L6.8294 5.95061L8.5 0.809018Z" fill="white" stroke="#FFCA64" stroke-width="0.5"/>
<g clip-path="url(#clip0_2296_8871)">
<path d="M8.5 0L10.4084 5.87336L16.584 5.87336L11.5878 9.50329L13.4962 15.3766L8.5 11.7467L3.50383 15.3766L5.41219 9.50329L0.416019 5.87336L6.59163 5.87336L8.5 0Z" fill="#FFCA64"/>
</g>
<defs>
<clipPath id="clip0_2296_8871">
<rect width="9" height="17" fill="white"/>
</clipPath>
</defs>
</svg>
